<?xml version="1.0" encoding="UTF-8" standalone="no"?>
<svg width="16px" height="16px" viewBox="0 0 16 16" version="1.1" xmlns="http://www.w3.org/2000/svg" xmlns:xlink="http://www.w3.org/1999/xlink" xmlns:sketch="http://www.bohemiancoding.com/sketch/ns">
    <!-- Generator: Sketch 3.3.2 (12043) - http://www.bohemiancoding.com/sketch -->
    <title>Artboard 6</title>
    <desc>Created with Sketch.</desc>
    <defs></defs>
    <g id="Page-1" stroke="none" stroke-width="1" fill="none" fill-rule="evenodd" sketch:type="MSPage">
        <g id="Artboard-6" sketch:type="MSArtboardGroup" fill="#FFFFFF">
            <path d="M3.10001812,7 L2,7 L2,12.9970707 C2,13.5621186 2.44882258,14 3.00247329,14 L12.9975267,14 C13.544239,14 14,13.5509732 14,12.9970707 L14,7 L12.8999819,7 C12.9655697,7.32310994 13,7.65753416 13,8 C13,10.7614237 10.7614237,13 8,13 C5.23857625,13 3,10.7614237 3,8 C3,7.65753416 3.03443026,7.32310994 3.10001812,7 L3.10001812,7 Z M0,1.99406028 C0,0.892771196 0.894513756,0 1.99406028,0 L14.0059397,0 C15.1072288,0 16,0.894513756 16,1.99406028 L16,14.0059397 C16,15.1072288 15.1054862,16 14.0059397,16 L1.99406028,16 C0.892771196,16 0,15.1054862 0,14.0059397 L0,1.99406028 Z M11.1000004,2.39538896 C11.1000004,2.12179318 11.315753,1.89999998 11.5953894,1.89999998 L13.6046114,1.89999998 C13.8782072,1.89999998 14.1000004,2.11575258 14.1000004,2.39538896 L14.1000004,4.40461099 C14.1000004,4.67820677 13.8842478,4.89999998 13.6046114,4.89999998 L11.5953894,4.89999998 C11.3217936,4.89999998 11.1000004,4.68424737 11.1000004,4.40461099 L11.1000004,2.39538896 Z M8,11 C9.65685425,11 11,9.65685425 11,8 C11,6.34314575 9.65685425,5 8,5 C6.34314575,5 5,6.34314575 5,8 C5,9.65685425 6.34314575,11 8,11 Z" id="Rectangle-27" sketch:type="MSShapeGroup"></path>
        </g>
    </g>
</svg>