<?xml version="1.0" encoding="UTF-8" standalone="no"?>
<svg width="16px" height="16px" viewBox="0 0 16 16" version="1.1" xmlns="http://www.w3.org/2000/svg" xmlns:xlink="http://www.w3.org/1999/xlink" xmlns:sketch="http://www.bohemiancoding.com/sketch/ns">
    <!-- Generator: Sketch 3.2.2 (9983) - http://www.bohemiancoding.com/sketch -->
    <title>link</title>
    <desc>Created with Sketch.</desc>
    <defs></defs>
    <g id="Page-1" stroke="none" stroke-width="1" fill="none" fill-rule="evenodd" sketch:type="MSPage">
        <g id="Artboard-2" sketch:type="MSArtboardGroup" transform="translate(-420.000000, -962.000000)" fill="#9EA7AF">
            <g id="1" sketch:type="MSLayerGroup" transform="translate(320.000000, 774.000000)">
                <path d="M110.148,201.601 C110.939,200.692 111.874,199.248 111.25,198 C110.25,196 106.75,197.5 106.75,195.5 C106.75,193.5 110,196 110,192 C110,190.562 108.85,190.102 107.654,190.011 C107.768,190.004 107.884,190 108,190 C111.308,190 114,192.691 114,196 C114,198.551 112.398,200.734 110.148,201.601 L110.148,201.601 Z M102,196 C102,194.351 102.669,192.854 103.75,191.769 C103.752,193.754 104.003,194.504 105,195.5 C106,196.5 107.5,198.25 107.5,200.25 C107.5,201.129 107.741,201.75 108.012,202 L108,202 C104.691,202 102,199.309 102,196 L102,196 Z M108,188 C103.582,188 100,191.582 100,196 C100,200.418 103.582,204 108,204 C112.418,204 116,200.418 116,196 C116,191.582 112.418,188 108,188 L108,188 Z" id="link" sketch:type="MSShapeGroup"></path>
            </g>
        </g>
    </g>
</svg>