<?xml version="1.0" encoding="UTF-8" standalone="no"?>
<svg width="13px" height="16px" viewBox="0 0 13 16" version="1.1" xmlns="http://www.w3.org/2000/svg" xmlns:xlink="http://www.w3.org/1999/xlink" xmlns:sketch="http://www.bohemiancoding.com/sketch/ns">
    <!-- Generator: Sketch 3.3.1 (12002) - http://www.bohemiancoding.com/sketch -->
    <title>location</title>
    <desc>Created with Sketch.</desc>
    <defs></defs>
    <g id="Page-1" stroke="none" stroke-width="1" fill="none" fill-rule="evenodd" sketch:type="MSPage">
        <g id="Artboard-2-Copy" sketch:type="MSArtboardGroup" transform="translate(-562.000000, -1135.000000)" fill-opacity="0.5" fill="#FFFFFF">
            <g id="1" sketch:type="MSLayerGroup" transform="translate(320.000000, 779.000000)">
                <g id="external" transform="translate(30.000000, 355.000000)" sketch:type="MSShapeGroup">
                    <path d="M218.072,10 C216.416,10 215.072,8.656 215.072,7 C215.072,5.344 216.416,4 218.072,4 C219.728,4 221.072,5.344 221.072,7 C221.072,8.656 219.728,10 218.072,10 L218.072,10 Z M218.072,1 C214.718,1 212,3.719 212,7.072 C212,11.363 216.363,15.652 217.692,16.86 C217.899,17.047 218.245,17.047 218.452,16.86 C219.781,15.652 224.144,11.363 224.144,7.072 C224.144,3.719 221.425,1 218.072,1 L218.072,1 Z" id="location"></path>
                </g>
            </g>
        </g>
    </g>
</svg>